<?xml version="1.0" standalone="no"?>
<!DOCTYPE svg PUBLIC "-//W3C//DTD SVG 20010904//EN"
 "http://www.w3.org/TR/2001/REC-SVG-20010904/DTD/svg10.dtd">
<svg version="1.0" xmlns="http://www.w3.org/2000/svg"
 width="76.000000pt" height="80.000000pt" viewBox="0 0 76.000000 80.000000"
 preserveAspectRatio="xMidYMid meet">

<g transform="translate(0.000000,80.000000) scale(0.100000,-0.100000)"
fill="#000000" stroke="none">
<path d="M502 759 c-20 -28 -34 -39 -53 -39 -22 0 -42 -19 -104 -95 -66 -83
-79 -95 -98 -88 -12 4 -35 6 -52 5 -16 -1 -42 -2 -57 -2 -16 -1 -28 -6 -28
-13 0 -7 -3 -22 -6 -34 -5 -18 5 -27 63 -62 38 -23 74 -41 80 -41 6 0 25 12
42 26 20 16 39 24 51 21 11 -3 30 3 44 14 20 16 28 17 54 7 17 -7 33 -10 35
-8 2 3 40 51 85 107 81 101 94 123 70 123 -7 0 -19 4 -27 9 -11 7 -8 16 17 47
17 21 30 39 29 40 -2 2 -29 7 -60 12 l-58 9 -27 -38z"/>
<path d="M160 385 c5 -13 5 -36 0 -54 -6 -23 -4 -33 9 -45 23 -21 33 -20 62 3
14 10 35 21 47 23 18 2 8 12 -52 50 -67 42 -74 44 -66 23z"/>
<path d="M107 258 c-17 -14 -92 -182 -76 -172 15 9 10 -9 -12 -46 -14 -24 7
-8 70 55 97 95 110 125 73 158 -22 20 -33 21 -55 5z"/>
</g>
</svg>
